<?xml version="1.0" encoding="iso-8859-1"?>
<!-- Generator: Adobe Illustrator 19.0.0, SVG Export Plug-In . SVG Version: 6.00 Build 0)  -->
<svg  version="1.1" id="Layer_1" xmlns="http://www.w3.org/2000/svg" xmlns:xlink="http://www.w3.org/1999/xlink" x="0px" y="0px"
	 viewBox="0 0 512 512" style="enable-background:new 0 0 512 512;" xml:space="preserve" >
<g transform="translate(1 1)">
	<g>
		<polygon style="fill:#FFDD09;" points="41.667,365.933 109.933,365.933 109.933,229.4 41.667,229.4 		"/>
		<polygon style="fill:#3731881f;" points="502.467,417.133 468.333,417.133 442.733,365.933 408.6,365.933 383,417.133 
			144.067,417.133 109.933,365.933 41.667,365.933 41.667,229.4 109.933,229.4 109.933,195.267 340.333,195.267 340.333,229.4 
			383,229.4 408.6,272.067 442.733,272.067 468.333,195.267 502.467,195.267 		"/>
	</g>
	<polygon style="fill:#ECF1F3;" points="476.867,417.133 502.467,417.133 502.467,195.267 476.867,195.267 	"/>
	<g>
		<polygon style="fill:#74ab9d;" points="152.6,144.067 306.2,144.067 306.2,92.867 152.6,92.867 		"/>
		<polygon style="fill:e;" points="186.733,195.267 272.067,195.267 272.067,144.067 186.733,144.067 		"/>
	</g>
	<polygon style="fill:#FFFFFF;" points="41.667,365.933 67.267,365.933 67.267,229.4 41.667,229.4 	"/>
	<polygon style="fill:#FFDD09;" points="408.6,365.933 442.733,365.933 442.733,272.067 408.6,272.067 	"/>
	<path  style="fill: #cecfcf;" d="M502.467,425.667h-34.133c-3.413,0-5.973-1.707-7.68-5.12l-23.04-46.08H413.72l-23.04,46.08
		c-1.707,3.413-4.267,5.12-7.68,5.12H144.067c-2.56,0-5.12-1.707-6.827-3.413l-31.573-47.787h-64c-5.12,0-8.533-3.413-8.533-8.533
		V229.4c0-5.12,3.413-8.533,8.533-8.533H101.4v-25.6c0-2.56,0.853-4.267,2.56-5.973s3.413-2.56,5.973-2.56h230.4
		c5.12,0,8.533,3.413,8.533,8.533v25.6H383c3.413,0,5.973,1.707,7.68,4.267l23.04,38.4h23.04l23.893-70.827
		c0.853-3.413,4.267-5.973,7.68-5.973h34.133c5.12,0,8.533,3.413,8.533,8.533v221.867C511,422.253,507.587,425.667,502.467,425.667z
		 M473.453,408.6h20.48V203.8h-19.627l-23.893,70.827c-0.853,3.413-4.267,5.973-7.68,5.973H408.6c-3.413,0-5.973-1.707-7.68-4.267
		l-23.04-38.4h-37.547c-5.12,0-8.533-3.413-8.533-8.533v-25.6H118.467v25.6c0,2.56-0.853,4.267-2.56,5.973
		c-1.707,1.707-3.413,2.56-5.973,2.56H50.2V357.4h59.733c2.56,0,5.12,1.707,6.827,3.413l31.573,47.787h228.693l23.04-46.08
		c1.707-2.56,4.267-5.12,7.68-5.12h34.133c3.413,0,5.973,1.707,7.68,5.12L473.453,408.6z"/>
	<path  style="fill: #cecfcf;" d="M41.667,297.667H7.533c-5.12,0-8.533-3.413-8.533-8.533s3.413-8.533,8.533-8.533h34.133c5.12,0,8.533,3.413,8.533,8.533
		S46.787,297.667,41.667,297.667z"/>
	<path  style="fill: #cecfcf;" d="M7.533,331.8c-5.12,0-8.533-3.413-8.533-8.533V255c0-5.12,3.413-8.533,8.533-8.533s8.533,3.413,8.533,8.533v68.267
		C16.067,328.387,12.653,331.8,7.533,331.8z"/>
	<path style="fill: #cecfcf;" d="M306.2,152.6H152.6c-5.12,0-8.533-3.413-8.533-8.533v-51.2c0-5.12,3.413-8.533,8.533-8.533h153.6
		c5.12,0,8.533,3.413,8.533,8.533v51.2C314.733,149.187,311.32,152.6,306.2,152.6z M161.133,135.533h136.533V101.4H161.133V135.533z
		"/>
	<path  style="fill: #cecfcf;" d="M272.067,203.8h-85.333c-5.12,0-8.533-3.413-8.533-8.533v-51.2c0-5.12,3.413-8.533,8.533-8.533h85.333
		c5.12,0,8.533,3.413,8.533,8.533v51.2C280.6,200.387,277.187,203.8,272.067,203.8z M195.267,186.733h68.267V152.6h-68.267V186.733z
		"/>
	<path style="fill: #cecfcf;" d="M109.933,374.467H41.667c-5.12,0-8.533-3.413-8.533-8.533V229.4c0-5.12,3.413-8.533,8.533-8.533h68.267
		c5.12,0,8.533,3.413,8.533,8.533v136.533C118.467,371.053,115.053,374.467,109.933,374.467z M50.2,357.4h51.2V237.933H50.2V357.4z"
		/>
	<path  style="fill: #cecfcf;" d="M442.733,374.467H408.6c-5.12,0-8.533-3.413-8.533-8.533v-93.867c0-5.12,3.413-8.533,8.533-8.533h34.133
		c5.12,0,8.533,3.413,8.533,8.533v93.867C451.267,371.053,447.853,374.467,442.733,374.467z M417.133,357.4H434.2v-76.8h-17.067
		V357.4z"/>
</g>
<g>
</g>
<g>
</g>
<g>
</g>
<g>
</g>
<g>
</g>
<g>
</g>
<g>
</g>
<g>
</g>
<g>
</g>
<g>
</g>
<g>
</g>
<g>
</g>
<g>
</g>
<g>
</g>
<g>
</g>
</svg>
