<?xml version="1.0" encoding="iso-8859-1"?>
<!-- Generator: Adobe Illustrator 19.0.0, SVG Export Plug-In . SVG Version: 6.00 Build 0)  -->
<svg version="1.1" id="Layer_1" xmlns="http://www.w3.org/2000/svg" xmlns:xlink="http://www.w3.org/1999/xlink" x="0px" y="0px"
	 viewBox="0 0 512 512" style="enable-background:new 0 0 512 512;" xml:space="preserve">
<g>
	<polygon style="fill:#5CB0FF;" points="345.15,272.151 310.242,195.351 153.6,195.351 153.6,272.151 	"/>
	<rect x="85.333" y="195.347" style="fill:#5CB0FF;" width="51.2" height="76.8"/>
</g>
<g>
	<path style="fill:#D0E8FF;" d="M110.933,366.018c-18.825,0-34.133,15.312-34.133,34.133s15.308,34.133,34.133,34.133
		s34.133-15.312,34.133-34.133S129.758,366.018,110.933,366.018z M110.933,417.218c-9.408,0-17.067-7.654-17.067-17.067
		s7.658-17.067,17.067-17.067S128,390.739,128,400.151S120.342,417.218,110.933,417.218z"/>
	<path style="fill:#D0E8FF;" d="M401.067,366.018c-18.825,0-34.133,15.312-34.133,34.133s15.308,34.133,34.133,34.133
		c18.825,0,34.133-15.312,34.133-34.133S419.892,366.018,401.067,366.018z M401.067,417.218c-9.408,0-17.067-7.654-17.067-17.067
		s7.658-17.067,17.067-17.067c9.408,0,17.067,7.654,17.067,17.067S410.475,417.218,401.067,417.218z"/>
	<path style="fill:#D0E8FF;" d="M479.342,354.539c-1.617-1.867-2.35-4.35-2-6.8c0.35-2.413,0.525-4.875,0.525-7.321
		c0-28.233-22.958-51.2-51.183-51.2H358.4H153.6v0.387h-17.067v-0.387H76.8H59.733v59.733c0,4.713-3.817,8.533-8.533,8.533H17.067
		v34.133h43.375c0.033-0.197,0.115-0.375,0.15-0.572c0.469-2.597,1.137-5.119,1.984-7.566c0.155-0.449,0.32-0.887,0.487-1.331
		c0.921-2.44,1.995-4.8,3.263-7.047c0.182-0.323,0.387-0.628,0.576-0.947c1.376-2.321,2.886-4.555,4.6-6.622
		c0.047-0.056,0.1-0.106,0.147-0.162c1.72-2.058,3.621-3.952,5.639-5.717c0.227-0.198,0.436-0.412,0.666-0.606
		c1.984-1.677,4.115-3.174,6.34-4.538c0.375-0.23,0.742-0.462,1.123-0.683c2.222-1.284,4.544-2.4,6.959-3.343
		c0.421-0.164,0.845-0.313,1.272-0.466c2.481-0.894,5.032-1.628,7.672-2.131c0.337-0.064,0.68-0.098,1.02-0.156
		c2.8-0.476,5.659-0.78,8.594-0.78c2.934,0,5.793,0.304,8.594,0.78c0.34,0.058,0.683,0.092,1.02,0.156
		c2.64,0.504,5.191,1.237,7.671,2.131c0.428,0.154,0.853,0.303,1.276,0.468c2.415,0.943,4.736,2.058,6.957,3.342
		c0.381,0.22,0.748,0.453,1.123,0.683c2.225,1.364,4.356,2.861,6.34,4.538c0.23,0.194,0.439,0.407,0.666,0.606
		c2.018,1.766,3.919,3.659,5.639,5.717c0.047,0.056,0.1,0.106,0.147,0.162c1.712,2.066,3.221,4.297,4.596,6.617
		c0.191,0.322,0.397,0.63,0.581,0.956c1.266,2.246,2.34,4.604,3.26,7.043c0.168,0.444,0.333,0.882,0.488,1.331
		c0.846,2.447,1.515,4.969,1.984,7.566c0.035,0.196,0.117,0.375,0.15,0.572h189.15c0.033-0.197,0.115-0.375,0.15-0.572
		c0.469-2.597,1.138-5.119,1.984-7.566c0.155-0.449,0.32-0.887,0.487-1.331c0.921-2.44,1.995-4.8,3.262-7.047
		c0.182-0.323,0.387-0.628,0.576-0.947c1.376-2.321,2.886-4.555,4.6-6.622c0.047-0.056,0.1-0.106,0.147-0.162
		c1.72-2.058,3.621-3.952,5.639-5.717c0.227-0.198,0.436-0.412,0.666-0.606c1.984-1.677,4.115-3.174,6.34-4.538
		c0.375-0.23,0.742-0.463,1.123-0.683c2.222-1.284,4.544-2.4,6.959-3.343c0.421-0.164,0.845-0.313,1.272-0.466
		c2.481-0.894,5.032-1.628,7.672-2.131c0.337-0.064,0.68-0.098,1.02-0.156c2.8-0.476,5.659-0.78,8.594-0.78
		c2.934,0,5.793,0.304,8.594,0.78c0.34,0.058,0.683,0.092,1.02,0.156c2.64,0.504,5.191,1.237,7.671,2.131
		c0.427,0.154,0.853,0.302,1.276,0.468c2.415,0.943,4.736,2.058,6.957,3.342c0.381,0.22,0.748,0.453,1.123,0.683
		c2.225,1.364,4.356,2.861,6.34,4.538c0.23,0.194,0.439,0.407,0.666,0.606c2.018,1.766,3.919,3.659,5.639,5.717
		c0.047,0.056,0.1,0.106,0.147,0.162c1.712,2.066,3.221,4.297,4.596,6.617c0.191,0.322,0.397,0.63,0.581,0.956
		c1.266,2.246,2.34,4.604,3.26,7.043c0.168,0.444,0.333,0.882,0.488,1.331c0.846,2.447,1.515,4.969,1.984,7.566
		c0.035,0.196,0.117,0.375,0.15,0.572h43.376v-34.133h-9.142C483.317,357.485,480.967,356.41,479.342,354.539z"/>
</g>
<g>
	<path style="fill:#1C71DA;" d="M503.467,340.418h-8.533c0-37.642-30.617-68.267-68.25-68.267h-62.791L323.5,183.289
		c-1.383-3.05-4.417-5.004-7.767-5.004H153.6h-17.067H76.8c-4.717,0-8.533,3.821-8.533,8.533v85.333H51.2
		c-4.717,0-8.533,3.821-8.533,8.533v59.733H8.533c-4.717,0-8.533,3.821-8.533,8.533v51.2c0,4.713,3.817,8.533,8.533,8.533h51.971
		c4.082,24.176,25.109,42.667,50.429,42.667s46.347-18.491,50.429-42.667h189.275c4.082,24.176,25.109,42.667,50.429,42.667
		s46.347-18.491,50.429-42.667h51.971c4.717,0,8.533-3.821,8.533-8.533v-51.2C512,344.239,508.183,340.418,503.467,340.418z
		 M310.242,195.351l34.908,76.8H153.6v-76.8H310.242z M85.333,195.351h51.2v76.8h-51.2V195.351z M110.933,434.285
		c-18.825,0-34.133-15.312-34.133-34.133s15.308-34.133,34.133-34.133s34.133,15.312,34.133,34.133S129.758,434.285,110.933,434.285
		z M401.067,434.285c-18.825,0-34.133-15.312-34.133-34.133s15.308-34.133,34.133-34.133c18.825,0,34.133,15.312,34.133,34.133
		S419.892,434.285,401.067,434.285z M494.933,391.618h-43.375c-0.033-0.197-0.115-0.375-0.15-0.572
		c-0.469-2.597-1.137-5.119-1.984-7.566c-0.155-0.449-0.32-0.887-0.488-1.331c-0.92-2.439-1.994-4.797-3.26-7.043
		c-0.184-0.327-0.391-0.634-0.581-0.956c-1.376-2.32-2.884-4.551-4.596-6.617c-0.047-0.056-0.1-0.106-0.147-0.162
		c-1.72-2.058-3.621-3.952-5.639-5.717c-0.227-0.198-0.436-0.411-0.666-0.606c-1.984-1.677-4.115-3.174-6.34-4.538
		c-0.375-0.23-0.742-0.462-1.123-0.683c-2.221-1.284-4.543-2.399-6.957-3.342c-0.422-0.165-0.848-0.314-1.276-0.468
		c-2.48-0.894-5.031-1.627-7.671-2.131c-0.337-0.064-0.68-0.098-1.02-0.156c-2.8-0.476-5.659-0.78-8.594-0.78
		c-2.934,0-5.793,0.304-8.594,0.78c-0.34,0.058-0.683,0.092-1.02,0.156c-2.64,0.504-5.192,1.237-7.672,2.131
		c-0.427,0.154-0.851,0.302-1.272,0.466c-2.415,0.944-4.737,2.059-6.959,3.343c-0.381,0.22-0.748,0.453-1.123,0.683
		c-2.225,1.364-4.356,2.861-6.34,4.538c-0.23,0.194-0.439,0.407-0.666,0.606c-2.018,1.766-3.919,3.659-5.639,5.717
		c-0.047,0.056-0.1,0.106-0.147,0.162c-1.714,2.068-3.224,4.301-4.6,6.622c-0.189,0.319-0.393,0.623-0.576,0.947
		c-1.267,2.247-2.342,4.607-3.262,7.047c-0.168,0.443-0.332,0.882-0.487,1.331c-0.846,2.447-1.515,4.969-1.984,7.566
		c-0.035,0.196-0.117,0.375-0.15,0.572h-189.15c-0.033-0.197-0.115-0.375-0.15-0.572c-0.469-2.597-1.137-5.119-1.984-7.566
		c-0.155-0.449-0.32-0.887-0.488-1.331c-0.92-2.439-1.994-4.797-3.26-7.043c-0.184-0.327-0.391-0.634-0.581-0.956
		c-1.376-2.32-2.884-4.551-4.596-6.617c-0.047-0.056-0.1-0.106-0.147-0.162c-1.72-2.058-3.621-3.952-5.639-5.717
		c-0.227-0.198-0.436-0.412-0.666-0.606c-1.984-1.677-4.115-3.174-6.34-4.538c-0.375-0.23-0.742-0.462-1.123-0.683
		c-2.221-1.284-4.543-2.399-6.957-3.342c-0.422-0.165-0.848-0.314-1.276-0.468c-2.48-0.894-5.031-1.627-7.671-2.131
		c-0.337-0.064-0.68-0.098-1.02-0.156c-2.8-0.476-5.659-0.78-8.594-0.78c-2.934,0-5.793,0.304-8.594,0.78
		c-0.34,0.058-0.683,0.092-1.02,0.156c-2.64,0.504-5.192,1.237-7.672,2.131c-0.427,0.154-0.851,0.302-1.272,0.466
		c-2.415,0.944-4.737,2.059-6.959,3.343c-0.381,0.22-0.748,0.453-1.123,0.683c-2.225,1.364-4.356,2.861-6.34,4.538
		c-0.23,0.194-0.439,0.407-0.666,0.606c-2.018,1.766-3.919,3.659-5.639,5.717c-0.047,0.056-0.1,0.106-0.147,0.162
		c-1.713,2.068-3.224,4.301-4.6,6.622c-0.189,0.319-0.393,0.623-0.576,0.947c-1.267,2.247-2.342,4.607-3.263,7.047
		c-0.168,0.443-0.332,0.882-0.487,1.331c-0.846,2.447-1.515,4.969-1.984,7.566c-0.035,0.196-0.117,0.375-0.15,0.572H17.067v-34.133
		H51.2c4.717,0,8.533-3.821,8.533-8.533v-59.733H76.8h59.733v0.387H153.6v-0.387h204.8h68.283c28.225,0,51.183,22.967,51.183,51.2
		c0,2.446-0.175,4.908-0.525,7.321c-0.35,2.45,0.383,4.933,2,6.8c1.625,1.871,3.975,2.946,6.45,2.946h9.142V391.618z"/>
	<path style="fill:#1C71DA;" d="M401.067,383.085c-9.408,0-17.067,7.654-17.067,17.067s7.658,17.067,17.067,17.067
		c9.408,0,17.067-7.654,17.067-17.067S410.475,383.085,401.067,383.085z"/>
	<path style="fill:#1C71DA;" d="M110.933,383.085c-9.408,0-17.067,7.654-17.067,17.067s7.658,17.067,17.067,17.067
		S128,409.564,128,400.151S120.342,383.085,110.933,383.085z"/>
</g>
<g>
	<path style="fill:#FF5D5D;" d="M265.631,107.885c-2.183,0-4.367-0.833-6.033-2.499c-3.333-3.333-3.333-8.736,0-12.069l30.171-30.17
		c3.329-3.331,8.733-3.331,12.067,0c3.333,3.333,3.333,8.736,0,12.069l-30.171,30.17C270,107.051,267.815,107.885,265.631,107.885z"
		/>
	<path style="fill:#FF5D5D;" d="M295.802,107.885c-2.183,0-4.367-0.833-6.033-2.499l-30.171-30.17
		c-3.333-3.332-3.333-8.735,0-12.069c3.329-3.331,8.733-3.331,12.067,0l30.171,30.17c3.333,3.332,3.333,8.735,0,12.069
		C300.171,107.051,297.986,107.885,295.802,107.885z"/>
</g>
<path style="fill:#00D40B;" d="M414.965,184.685c-16.469,0-29.867-13.398-29.867-29.867s13.398-29.867,29.867-29.867
	s29.867,13.398,29.867,29.867S431.433,184.685,414.965,184.685z M414.965,142.018c-7.058,0-12.8,5.742-12.8,12.8
	c0,7.058,5.742,12.8,12.8,12.8c7.058,0,12.8-5.742,12.8-12.8C427.764,147.76,422.023,142.018,414.965,142.018z"/>
<path style="fill:#FFC504;" d="M50.833,139.09L50.833,139.09c-2.262,0-4.433-0.899-6.033-2.5l-24.135-24.137
	c-3.333-3.332-3.333-8.734,0-12.068L44.8,76.25c3.329-3.331,8.733-3.331,12.067,0l24.138,24.135c1.6,1.6,2.5,3.771,2.5,6.034
	s-0.9,4.433-2.5,6.034l-24.138,24.137C55.267,138.191,53.096,139.09,50.833,139.09z M38.767,106.42l12.067,12.069l12.069-12.069
	L50.833,94.352L38.767,106.42z"/>
<g>
</g>
<g>
</g>
<g>
</g>
<g>
</g>
<g>
</g>
<g>
</g>
<g>
</g>
<g>
</g>
<g>
</g>
<g>
</g>
<g>
</g>
<g>
</g>
<g>
</g>
<g>
</g>
<g>
</g>
</svg>
