<?xml version="1.0" encoding="utf-8"?>

<svg version="1.1" id="Icons" xmlns="http://www.w3.org/2000/svg" xmlns:xlink="http://www.w3.org/1999/xlink" x="0px" y="0px"
	 viewBox="0 0 32 32" style="enable-background:new 0 0 32 32;" xml:space="preserve">
<style type="text/css">
	.st0{fill:#1781be7e; stroke:#8ddadbc9; stroke-width:2; stroke-linejoin:round; stroke-miterlimit:10;}
	.st1{fill:none;stroke:#000000; stroke-width:2; stroke-linecap:round; stroke-linejoin:round; stroke-miterlimit:10;}
	.st2{fill:none;stroke:#000000; stroke-width:2; stroke-miterlimit:10;}
</style>
<polygon class="st0" points="27,22 5,22 9,16 23,16 "/>
<path class="st0" d="M7,19H4v-7c0-2.2,1.8-4,4-4h0l0,0c5,2.5,11,2.5,16,0l0,0h0c2.2,0,4,1.8,4,4v7h-3"/>
<line class="st0" x1="22" y1="12" x2="24" y2="12"/>
<polyline  style="fill: #5075eef3;" class="st0" points="10,9 10,3 22,3 22,9 "/>
<line  class="st0" x1="3" y1="27" x2="13" y2="27"/>
<line class="st0" x1="19" y1="27" x2="29" y2="27"/>
<path  style="fill: #dad619cc;" class="st0" d="M17,29h-2c-1.1,0-2-0.9-2-2v0c0-1.1,0.9-2,2-2h2c1.1,0,2,0.9,2,2v0C19,28.1,18.1,29,17,29z"/>
<line  class="st0" x1="16" y1="25" x2="16" y2="22"/>
</svg>
